# xmcd
#
# Track frame offsets:
#	150
#	20927
#	40902
#	62516
#	78907
#	98431
#	115074
#	128744
#	150686
#	169158
#	188021
#	200165
#	215688
#	231112
#	244709
#	266256
#	287022
#	311605
#
# Disc length: 4400
#
# Revision: 2
# Processed by: cddbd v1.5.1PL0 Copyright (c) Steve Scherf et al.
# Submitted via: ExactAudioCopy v0.95a5
# Normalized: r1:TDELIM( - )
#
DISCID=f4112e12
DTITLE=Various Artist - Woodyfaction Guaranteed Vol 3
DYEAR=2003
DGENRE=Country
TTITLE0=Coming Grass - Waste of Time
TTITLE1=Tift Merritt - Virginia, No One Can Warn You
TTITLE2=Jesse Sykes and The Sweet Hereafter - Lonely Still
TTITLE3=Johnny Cash - Hurt
TTITLE4=Allison Moorer - Tumbling Down
TTITLE5=Jesse Harris and The Ferdinandos - I've Got to See You Again
TTITLE6=Richard Buckner - Born Into Giving It Up
TTITLE7=Christian Kjellvander - Log at 25
TTITLE8=Laura Cantrell - When the Roses Bloom Again
TTITLE9=Caitlin Cary - What Will You Do?
TTITLE10=Catherine Irwin - Cry Our Little Eyes Out
TTITLE11=Ralph Stanley - Calling You
TTITLE12=Chip Taylor and Carrie Rodriguez - Let's Leave This Town
TTITLE13=Tom Armstrong and The Jukebox Cowboys - Give Up On Me
TTITLE14=Mike Irland and Holler - Life Has It's Little Ups and Downs
TTITLE15=Bobby Bare Jr - I'll Be Around
TTITLE16=Josh Rouse - Ugly Stories
TTITLE17=Handsome Family - Knoxville Girl
EXTD=YEAR: 2003
EXTT0=
EXTT1=
EXTT2=
EXTT3=
EXTT4=
EXTT5=
EXTT6=
EXTT7=
EXTT8=
EXTT9=
EXTT10=
EXTT11=
EXTT12=
EXTT13=
EXTT14=
EXTT15=
EXTT16=
EXTT17=
PLAYORDER=
